<?xml version="1.0" encoding="UTF-8" standalone="no"?>
<svg
   xmlns:dc="http://purl.org/dc/elements/1.1/"
   xmlns:cc="http://creativecommons.org/ns#"
   xmlns:rdf="http://www.w3.org/1999/02/22-rdf-syntax-ns#"
   xmlns:svg="http://www.w3.org/2000/svg"
   xmlns="http://www.w3.org/2000/svg"
   xmlns:sodipodi="http://sodipodi.sourceforge.net/DTD/sodipodi-0.dtd"
   xmlns:inkscape="http://www.inkscape.org/namespaces/inkscape"
   xml:space="preserve"
   width="32"
   height="40"
   version="1.1"
   id="svg20"
   sodipodi:docname="icon-xdoc.svg"
   inkscape:version="1.0.2 (e86c870879, 2021-01-15)"><metadata
     id="metadata26"><rdf:RDF><cc:Work
         rdf:about=""><dc:format>image/svg+xml</dc:format><dc:type
           rdf:resource="http://purl.org/dc/dcmitype/StillImage" /></cc:Work></rdf:RDF></metadata><defs
     id="defs24" /><sodipodi:namedview
     pagecolor="#ffffff"
     bordercolor="#666666"
     borderopacity="1"
     objecttolerance="10"
     gridtolerance="10"
     guidetolerance="10"
     inkscape:pageopacity="0"
     inkscape:pageshadow="2"
     inkscape:window-width="1920"
     inkscape:window-height="1050"
     id="namedview22"
     showgrid="false"
     inkscape:zoom="14.227969"
     inkscape:cx="28.893353"
     inkscape:cy="20"
     inkscape:window-x="0"
     inkscape:window-y="0"
     inkscape:window-maximized="1"
     inkscape:current-layer="svg20" /><path
     d="M 20,9 V 0 H 3 C 1.3,0 0,1.3 0,3 v 34 c 0,1.7 1.3,3 3,3 h 26 c 1.7,0 3,-1.3 3,-3 V 12 h -9 c -1.7,0 -3,-1.3 -3,-3 z"
     style="fill:#f2eecb;fill-opacity:1"
     id="path2" /><g
     style="opacity:0.2"
     id="g6"><path
       style="opacity:1;fill:#28240b;fill-opacity:1"
       d="M 48,33 V 24 L 37,23.3 Z"
       transform="translate(-16,-12)"
       id="path4" /></g><path
     style="fill:#333333;fill-opacity:1;fill-rule:nonzero;stroke:none;stroke-width:0;stroke-linejoin:bevel;stroke-miterlimit:4;stroke-dasharray:none"
     d="M 5.479,28.71 H 26.28 v 2.142 H 5.479 Z m 0,4.142 H 26.28 v 2.142 H 5.479 Z"
     id="path8" /><g
     style="font-style:normal;font-variant:normal;font-weight:700;font-stretch:normal;font-size:32px;line-height:1.25;font-family:'Myriad Pro';-inkscape-font-specification:'Myriad Pro Bold';fill:#33333f;fill-opacity:1;stroke-width:0.999778;stroke-miterlimit:4;stroke-dasharray:none"
     id="g16"><path
       d="m 3.94,10.678 5.184,7.648 -5.312,8 h 5.344 l 1.472,-2.816 c 0.384,-0.768 0.8,-1.536 1.184,-2.4 h 0.096 c 0.352,0.832 0.768,1.632 1.216,2.4 l 1.568,2.816 h 5.504 l -5.216,-8.192 5.152,-7.456 h -5.28 l -1.376,2.528 c -0.416,0.8 -0.8,1.568 -1.216,2.432 H 12.196 C 11.78,14.87 11.364,14.102 10.916,13.302 L 9.38,10.678 Z"
       style="font-size:32px;fill:#33333f;fill-opacity:1;stroke-width:0.999778;stroke-miterlimit:4;stroke-dasharray:none"
       transform="matrix(1.29995,0,0,1.17845,0.693,-5.375)"
       aria-label="x"
       id="path14" /></g><path
     d="m 20,0 v 9 c 0,1.7 1.3,3 3,3 h 9 z"
     style="fill:#606047;fill-opacity:1"
     id="path18" /></svg>
